<svg width="287" height="89" viewBox="0 0 287 89" fill="none" xmlns="http://www.w3.org/2000/svg">
<path d="M32 31.0882C32 28.4667 32 27.1559 32.7153 26.253C32.8995 26.0205 33.1143 25.8124 33.3543 25.6341C34.2865 24.9412 35.6397 24.9412 38.3462 24.9412C41.0526 24.9412 42.4058 24.9412 43.338 25.6341C43.578 25.8124 43.7928 26.0205 43.977 26.253C44.6923 27.1559 44.6923 28.4667 44.6923 31.0882V66.8529C44.6923 69.4745 44.6923 70.7852 43.977 71.6882C43.7928 71.9207 43.578 72.1287 43.338 72.3071C42.4058 73 41.0526 73 38.3462 73C35.6397 73 34.2865 73 33.3543 72.3071C33.1143 72.1287 32.8995 71.9207 32.7153 71.6882C32 70.7852 32 69.4745 32 66.8529V31.0882Z" fill="white"/>
<path d="M48.1538 35.5588C48.1538 32.9373 48.1538 31.6265 48.8692 30.7236C49.0533 30.4911 49.2681 30.283 49.5081 30.1046C50.4404 29.4118 51.7936 29.4118 54.5 29.4118C57.2064 29.4118 58.5596 29.4118 59.4919 30.1046C59.7319 30.283 59.9467 30.4911 60.1308 30.7236C60.8462 31.6265 60.8462 32.9373 60.8462 35.5588V46.7353C60.8462 49.3568 60.8462 50.6676 60.1308 51.5706C59.9467 51.803 59.7319 52.0111 59.4919 52.1895C58.5596 52.8824 57.2064 52.8824 54.5 52.8824C51.7936 52.8824 50.4404 52.8824 49.5081 52.1895C49.2681 52.0111 49.0533 51.803 48.8692 51.5706C48.1538 50.6676 48.1538 49.3568 48.1538 46.7353V35.5588Z" fill="white"/>
<path d="M64.3077 22.1471C64.3077 19.5255 64.3077 18.2148 65.023 17.3118C65.2072 17.0793 65.422 16.8713 65.662 16.6929C66.5942 16 67.9474 16 70.6538 16C73.3603 16 74.7135 16 75.6457 16.6929C75.8857 16.8713 76.1005 17.0793 76.2847 17.3118C77 18.2148 77 19.5255 77 22.1471V59.0294C77 61.6509 77 62.9617 76.2847 63.8647C76.1005 64.0971 75.8857 64.3052 75.6457 64.4836C74.7135 65.1765 73.3603 65.1765 70.6538 65.1765C67.9474 65.1765 66.5942 65.1765 65.662 64.4836C65.422 64.3052 65.2072 64.0971 65.023 63.8647C64.3077 62.9617 64.3077 61.6509 64.3077 59.0294V22.1471Z" fill="white"/>
<path d="M103.504 58.384C101.797 58.384 100.219 58.0747 98.768 57.456C97.3387 56.8373 96.08 55.9733 94.992 54.864C93.9253 53.7547 93.0933 52.4533 92.496 50.96C91.8987 49.4667 91.6 47.8347 91.6 46.064C91.6 44.2933 91.888 42.6613 92.464 41.168C93.0613 39.6533 93.8933 38.352 94.96 37.264C96.048 36.1547 97.3173 35.3013 98.768 34.704C100.219 34.0853 101.797 33.776 103.504 33.776C105.211 33.776 106.736 34.064 108.08 34.64C109.445 35.216 110.597 35.984 111.536 36.944C112.475 37.8827 113.147 38.9173 113.552 40.048L109.648 41.872C109.2 40.6773 108.443 39.696 107.376 38.928C106.309 38.1387 105.019 37.744 103.504 37.744C102.011 37.744 100.688 38.096 99.536 38.8C98.4053 39.504 97.52 40.4747 96.88 41.712C96.2613 42.9493 95.952 44.4 95.952 46.064C95.952 47.728 96.2613 49.1893 96.88 50.448C97.52 51.6853 98.4053 52.656 99.536 53.36C100.688 54.064 102.011 54.416 103.504 54.416C105.019 54.416 106.309 54.032 107.376 53.264C108.443 52.4747 109.2 51.4827 109.648 50.288L113.552 52.112C113.147 53.2427 112.475 54.288 111.536 55.248C110.597 56.1867 109.445 56.944 108.08 57.52C106.736 58.096 105.211 58.384 103.504 58.384ZM122.693 58.384C120.986 58.384 119.429 57.9893 118.021 57.2C116.634 56.4107 115.525 55.3333 114.693 53.968C113.882 52.6027 113.477 51.0453 113.477 49.296C113.477 47.5467 113.882 45.9893 114.693 44.624C115.525 43.2587 116.634 42.1813 118.021 41.392C119.407 40.6027 120.965 40.208 122.693 40.208C124.399 40.208 125.946 40.6027 127.333 41.392C128.719 42.1813 129.818 43.2587 130.629 44.624C131.461 45.968 131.877 47.5253 131.877 49.296C131.877 51.0453 131.461 52.6027 130.629 53.968C129.797 55.3333 128.687 56.4107 127.301 57.2C125.914 57.9893 124.378 58.384 122.693 58.384ZM122.693 54.544C123.631 54.544 124.453 54.32 125.157 53.872C125.882 53.424 126.447 52.8053 126.853 52.016C127.279 51.2053 127.493 50.2987 127.493 49.296C127.493 48.272 127.279 47.376 126.853 46.608C126.447 45.8187 125.882 45.2 125.157 44.752C124.453 44.2827 123.631 44.048 122.693 44.048C121.733 44.048 120.89 44.2827 120.165 44.752C119.439 45.2 118.863 45.8187 118.437 46.608C118.031 47.376 117.829 48.272 117.829 49.296C117.829 50.2987 118.031 51.2053 118.437 52.016C118.863 52.8053 119.439 53.424 120.165 53.872C120.89 54.32 121.733 54.544 122.693 54.544ZM132.816 58V40.592H136.752V44.624L136.304 43.952C136.624 42.6933 137.264 41.7547 138.224 41.136C139.184 40.5173 140.314 40.208 141.616 40.208C143.045 40.208 144.304 40.5813 145.392 41.328C146.48 42.0747 147.184 43.056 147.504 44.272L146.32 44.368C146.853 42.9813 147.653 41.9467 148.72 41.264C149.786 40.56 151.013 40.208 152.4 40.208C153.637 40.208 154.736 40.4853 155.696 41.04C156.677 41.5947 157.445 42.3733 158 43.376C158.554 44.3573 158.832 45.4987 158.832 46.8V58H154.64V47.792C154.64 47.024 154.501 46.3627 154.224 45.808C153.946 45.2533 153.562 44.8267 153.072 44.528C152.581 44.208 151.984 44.048 151.28 44.048C150.618 44.048 150.032 44.208 149.52 44.528C149.008 44.8267 148.613 45.2533 148.336 45.808C148.058 46.3627 147.92 47.024 147.92 47.792V58H143.728V47.792C143.728 47.024 143.589 46.3627 143.312 45.808C143.034 45.2533 142.64 44.8267 142.128 44.528C141.637 44.208 141.05 44.048 140.368 44.048C139.706 44.048 139.12 44.208 138.608 44.528C138.096 44.8267 137.701 45.2533 137.424 45.808C137.146 46.3627 137.008 47.024 137.008 47.792V58H132.816ZM160.138 58V40.592H164.074V44.624L163.626 43.952C163.946 42.6933 164.586 41.7547 165.546 41.136C166.506 40.5173 167.637 40.208 168.938 40.208C170.368 40.208 171.626 40.5813 172.714 41.328C173.802 42.0747 174.506 43.056 174.826 44.272L173.642 44.368C174.176 42.9813 174.976 41.9467 176.042 41.264C177.109 40.56 178.336 40.208 179.722 40.208C180.96 40.208 182.058 40.4853 183.018 41.04C184 41.5947 184.768 42.3733 185.322 43.376C185.877 44.3573 186.154 45.4987 186.154 46.8V58H181.962V47.792C181.962 47.024 181.824 46.3627 181.546 45.808C181.269 45.2533 180.885 44.8267 180.394 44.528C179.904 44.208 179.306 44.048 178.602 44.048C177.941 44.048 177.354 44.208 176.842 44.528C176.33 44.8267 175.936 45.2533 175.658 45.808C175.381 46.3627 175.242 47.024 175.242 47.792V58H171.05V47.792C171.05 47.024 170.912 46.3627 170.634 45.808C170.357 45.2533 169.962 44.8267 169.45 44.528C168.96 44.208 168.373 44.048 167.69 44.048C167.029 44.048 166.442 44.208 165.93 44.528C165.418 44.8267 165.024 45.2533 164.746 45.808C164.469 46.3627 164.33 47.024 164.33 47.792V58H160.138ZM193.669 58.384C192.325 58.384 191.151 58.0853 190.149 57.488C189.167 56.8907 188.41 56.0587 187.877 54.992C187.365 53.9253 187.109 52.6773 187.109 51.248V40.592H191.301V50.896C191.301 51.6213 191.439 52.2613 191.717 52.816C192.015 53.3493 192.431 53.776 192.965 54.096C193.519 54.3947 194.138 54.544 194.821 54.544C195.503 54.544 196.111 54.3947 196.645 54.096C197.178 53.776 197.594 53.3387 197.893 52.784C198.191 52.2293 198.341 51.568 198.341 50.8V40.592H202.533V58H198.565V54.576L198.917 55.184C198.511 56.2507 197.839 57.0507 196.901 57.584C195.983 58.1173 194.906 58.384 193.669 58.384ZM204.19 58V40.592H208.126V44.016L207.806 43.408C208.211 42.3627 208.872 41.5733 209.79 41.04C210.728 40.4853 211.816 40.208 213.054 40.208C214.334 40.208 215.464 40.4853 216.446 41.04C217.448 41.5947 218.227 42.3733 218.782 43.376C219.336 44.3573 219.614 45.4987 219.614 46.8V58H215.422V47.792C215.422 47.024 215.272 46.3627 214.974 45.808C214.675 45.2533 214.259 44.8267 213.726 44.528C213.214 44.208 212.606 44.048 211.902 44.048C211.219 44.048 210.611 44.208 210.078 44.528C209.544 44.8267 209.128 45.2533 208.83 45.808C208.531 46.3627 208.382 47.024 208.382 47.792V58H204.19ZM220.918 58V40.592H225.11V58H220.918ZM220.918 38.64V34.16H225.11V38.64H220.918ZM234.677 58.192C232.714 58.192 231.189 57.6587 230.101 56.592C229.034 55.504 228.501 53.9787 228.501 52.016V44.336H225.493V40.592H225.813C226.666 40.592 227.327 40.368 227.797 39.92C228.266 39.472 228.501 38.8213 228.501 37.968V36.624H232.693V40.592H236.693V44.336H232.693V51.792C232.693 52.368 232.789 52.8587 232.981 53.264C233.194 53.6693 233.514 53.9787 233.941 54.192C234.389 54.4053 234.954 54.512 235.637 54.512C235.786 54.512 235.957 54.5013 236.149 54.48C236.362 54.4587 236.565 54.4373 236.757 54.416V58C236.458 58.0427 236.117 58.0853 235.733 58.128C235.349 58.1707 234.997 58.192 234.677 58.192ZM239.832 65.04C239.362 65.04 238.904 64.9973 238.456 64.912C238.008 64.848 237.602 64.72 237.24 64.528V61.04C237.517 61.104 237.848 61.168 238.232 61.232C238.637 61.296 239.01 61.328 239.352 61.328C240.312 61.328 241.005 61.104 241.432 60.656C241.88 60.2293 242.274 59.6533 242.616 58.928L243.768 56.24L243.704 59.76L236.12 40.592H240.632L245.944 54.736H244.344L249.624 40.592H254.168L246.584 59.76C246.136 60.8693 245.592 61.8187 244.952 62.608C244.312 63.3973 243.565 63.9947 242.712 64.4C241.88 64.8267 240.92 65.04 239.832 65.04Z" fill="white"/>
</svg>
